<svg xmlns="http://www.w3.org/2000/svg" viewBox="0 0 606.8 34.7"><path d="M606.8 16.8c-5.1 3.9-10.6 5-16.6 4.4-4-.4-8-1-11.8 1-1 .5-2.3.5-3.5.4-8.8-.8-17.3 1.8-26 2.5-17.6 1.5-35 4-52.6 5.3-10.5.8-21.1 1.6-31.7 1.4-21.3-.3-42.6 1.4-63.9 2.1-35.3 1.2-70.5.7-105.8.8-21.1 0-42.2.1-63.2-.4-29.1-.7-58.2-2-87.3-3.1-18.9-.8-37.8-1.7-56.7-2.6-17.5-.9-34.9-2.8-52.3-4.8-6.6-.7-13.3-1.8-19.8-.6-5.3 1-9.2-1.5-13-4.1-4.3-2.9-2.5-5.7 1.4-7.9 1.7-1 4.1-1.1 6.2-1.1 2.9 0 5-.5 6-3.6.4-1.5 1.8-2.6 3.1-2.6 5.2 0 9.9-2.2 15.3-1.5 7.5 1 15.4 2.7 22.6-2 .5-.4 1.4-.5 2-.4 11.1 1.9 22.2-.7 33.3.8 9.3 1.2 18.9 1 28.3 1.1 15.8.2 31.7.2 47.5.8 15.6.6 31.2.5 46.8.1 28.9-.8 57.8 0 86.6 0 18.2 0 36.4-.5 54.6-.6 20.8-.1 41.6.4 62.4 1.6 24.3 1.4 48.7 2.5 73 3.6 8.3.4 16.5-1 24.8-1.4 6.5-.4 12.5.3 18.5.9 7.1.7 14 1.8 21.2 1.2 3.5-.3 7 .6 10.5 1.1 1.4.2 3 .6 2.6 2.6-.3 1.5.8 1.4 1.6 1.4 5.4.1 10.6 2.2 16.1 1.7 6.7-.5 13 2.5 19.8 1.9z" fill="#c17968"/></svg>